{"title":"The.Collector.1965.720p.BluRay.X264","uid":7076722,"size":4694858347,"categoryP":"video","categoryS":"hd___movies","magnet":"?xt=urn:btih:e05f9f7af0d4ae76fb55d62f787bf638364c24c2&amp;dn=The.Collector.1965.720p.BluRay.X264&amp;tr=udp%3A%2F%2Ftracker.openbittorrent.com%3A80&amp;tr=udp%3A%2F%2Fopen.demonii.com%3A1337&amp;tr=udp%3A%2F%2Ftracker.coppersurfer.tk%3A6969&amp;tr=udp%3A%2F%2Fexodus.desync.com%3A6969","seeders":2,"leechers":1,"uploader":"mfccorrea","files":5,"time":1330871947,"description":"John Fowles's novel The Collector was written in the form of a dual diary, one kept by a kidnapper, the other by his victim. The film is told almost exclusively from the point of view of the former, a nerdish British bank clerk named Freddy Clegg (Terence Stamp). A neurotic recluse whose only pleasure is butterfly collecting, Clegg wins $200,000 in the British Football Pool. He purchases a huge country estate, fixes up its cellar with all the comforts of home, then kidnaps Miranda (Samantha Eggar), an art student whom he has worshipped from afar. The demented Clegg doesn't want ransom, nor does he want to rape the girl: he simply wants to &quot;collect&quot; her. She isn't keen on this, and tries several times to escape. After several weeks, Clegg and Miranda grow increasingly fond of one another, and Clegg promises to let her go. When time comes for the actual release, however, Clegg decides that Miranda hasn't completely come around to his way of thinking and changes his mind, leading to a further series of unfortunate events.\n\n\n   General\n      Complete name : The.Collector.1965.720p.BluRay.X264.mkv\n      Format : Matroska\n      File size : 4.37 GiB\n      Duration : 1h 59mn\n      Overall bit rate : 5 251 Kbps\n      Writing application : x264.exe\n      Writing library : mkv2rls v1.4 (date: 2011 mar 29)\n   Video #1\n      ID : 1\n      Format : AVC\n      Format/Info : Advanced Video Codec\n      Format profile : &lt;a class=&quot;__cf_email__&quot; href=&quot;/cdn-cgi/l/email-protection&quot; data-cfemail=&quot;82caebe5eac2ceb6acb3&quot;&gt;[email&amp;#160;protected]&lt;/a&gt;&lt;script cf-hash='f9e31' type=&quot;text/javascript&quot;&gt;\n/* &lt;![CDATA[ */!function(){try{var t=&quot;currentScript&quot;in document?document.currentScript:function(){for(var t=document.getElementsByTagName(&quot;script&quot;),e=t.length;e--;)if(t[e].getAttribute(&quot;cf-hash&quot;))return t[e]}();if(t&amp;&amp;t.previousSibling){var e,r,n,i,c=t.previousSibling,a=c.getAttribute(&quot;data-cfemail&quot;);if(a){for(e=&quot;&quot;,r=parseInt(a.substr(0,2),16),n=2;a.length-n;n+=2)i=parseInt(a.substr(n,2),16)^r,e+=String.fromCharCode(i);e=document.createTextNode(e),c.parentNode.replaceChild(e,c)}}}catch(u){}}();/* ]]&gt; */&lt;/script&gt;\n      Format settings, CABAC : Yes\n      Format settings, ReFrames : 5 frames\n      Muxing mode : Container profile=&lt;a class=&quot;__cf_email__&quot; href=&quot;/cdn-cgi/l/email-protection&quot; data-cfemail=&quot;3e6b5055505149507e0a100f&quot;&gt;[email&amp;#160;protected]&lt;/a&gt;&lt;script cf-hash='f9e31' type=&quot;text/javascript&quot;&gt;\n/* &lt;![CDATA[ */!function(){try{var t=&quot;currentScript&quot;in document?document.currentScript:function(){for(var t=document.getElementsByTagName(&quot;script&quot;),e=t.length;e--;)if(t[e].getAttribute(&quot;cf-hash&quot;))return t[e]}();if(t&amp;&amp;t.previousSibling){var e,r,n,i,c=t.previousSibling,a=c.getAttribute(&quot;data-cfemail&quot;);if(a){for(e=&quot;&quot;,r=parseInt(a.substr(0,2),16),n=2;a.length-n;n+=2)i=parseInt(a.substr(n,2),16)^r,e+=String.fromCharCode(i);e=document.createTextNode(e),c.parentNode.replaceChild(e,c)}}}catch(u){}}();/* ]]&gt; */&lt;/script&gt;\n      Codec ID : V_MPEG4/ISO/AVC\n      Duration : 1h 59mn\n      Bit rate : 4 507 Kbps\n      Nominal bit rate : 4 610 Kbps\n      Width : 1 280 pixels\n      Height : 696 pixels\n      Display aspect ratio : 16:9\n      Frame rate : 23.976 fps\n      Resolution : 24 bits\n      Colorimetry : 4:2:0\n      Scan type : Progressive\n      Bits/(Pixel*Frame) : 0.211\n      Stream size : 3.75 GiB (86%)\n      Writing library : x264 core 119 r2106 07efeb4\n   Audio #2\n      ID : 2\n      Format : AC-3\n      Format/Info : Audio Coding 3\n      Codec ID : A_AC3\n      Duration : 1h 59mn\n      Bit rate mode : Constant\n      Bit rate : 640 Kbps\n      Channel(s) : 2 channels\n      Channel positions : L R\n      Sampling rate : 48.0 KHz\n      Stream size : 546 MiB (12%)\n      Language : English\n   Text #3\n      ID : 3\n      Format : UTF-8\n      Codec ID : S_TEXT/UTF8\n      Codec ID/Info : UTF-8 Plain Text\n      Language : English\n &lt;a href=&quot;\nhttp://www.imdb.com/title/tt0059043/&quot; rel=&quot;nofollow&quot; target=&quot;_NEW&quot;&gt;\nhttp://www.imdb.com/title/tt0059043/&lt;/a&gt;\n\nLanguage: English\nSubtitles: English, French, Spanish and Portuguese","torrent":{"xt":"urn:btih:e05f9f7af0d4ae76fb55d62f787bf638364c24c2","amp;dn":"The.Collector.1965.720p.BluRay.X264","amp;tr":["udp%3A%2F%2Ftracker.openbittorrent.com%3A80","udp%3A%2F%2Fopen.demonii.com%3A1337","udp%3A%2F%2Ftracker.coppersurfer.tk%3A6969","udp%3A%2F%2Fexodus.desync.com%3A6969"],"infoHash":"e05f9f7af0d4ae76fb55d62f787bf638364c24c2","infoHashBuffer":{"type":"Buffer","data":[224,95,159,122,240,212,174,118,251,85,214,47,120,123,246,56,54,76,36,194]},"announce":[],"urlList":[]}}